<svg width="154" height="58" viewBox="0 0 154 58" fill="none" xmlns="http://www.w3.org/2000/svg">
<path d="M2.55682 7.72727H6.81818L14.2273 25.8182H14.5L21.9091 7.72727H26.1705V31H22.8295V14.1591H22.6136L15.75 30.9659H12.9773L6.11364 14.1477H5.89773V31H2.55682V7.72727ZM31.2756 31V7.72727H45.8665V10.75H34.7869V17.8409H45.1051V20.8523H34.7869V27.9773H46.0028V31H31.2756ZM59.6023 7.72727H63.1023V24.2273C63.1023 25.7197 62.8068 26.9962 62.2159 28.0568C61.6326 29.1174 60.8106 29.928 59.75 30.4886C58.6894 31.0417 57.447 31.3182 56.0227 31.3182C54.7121 31.3182 53.5341 31.0795 52.4886 30.6023C51.4508 30.125 50.6288 29.4318 50.0227 28.5227C49.4242 27.6061 49.125 26.4924 49.125 25.1818H52.6136C52.6136 25.8258 52.7614 26.3826 53.0568 26.8523C53.3598 27.322 53.7727 27.6894 54.2955 27.9545C54.8258 28.2121 55.4318 28.3409 56.1136 28.3409C56.8561 28.3409 57.4848 28.1856 58 27.875C58.5227 27.5568 58.9205 27.0909 59.1932 26.4773C59.4659 25.8636 59.6023 25.1136 59.6023 24.2273V7.72727ZM71.7244 7.72727V31H68.2131V7.72727H71.7244ZM81.3949 31L74.9403 7.72727H78.6335L83.1676 25.75H83.3835L88.0994 7.72727H91.7585L96.4744 25.7614H96.6903L101.213 7.72727H104.918L98.4517 31H94.9176L90.0199 13.5682H89.8381L84.9403 31H81.3949ZM127.179 19.3636C127.179 21.8485 126.724 23.9848 125.815 25.7727C124.906 27.553 123.66 28.9242 122.077 29.8864C120.501 30.8409 118.709 31.3182 116.702 31.3182C114.687 31.3182 112.887 30.8409 111.304 29.8864C109.728 28.9242 108.486 27.5492 107.577 25.7614C106.668 23.9735 106.213 21.8409 106.213 19.3636C106.213 16.8788 106.668 14.7462 107.577 12.9659C108.486 11.178 109.728 9.80682 111.304 8.85227C112.887 7.89015 114.687 7.40909 116.702 7.40909C118.709 7.40909 120.501 7.89015 122.077 8.85227C123.66 9.80682 124.906 11.178 125.815 12.9659C126.724 14.7462 127.179 16.8788 127.179 19.3636ZM123.702 19.3636C123.702 17.4697 123.395 15.875 122.781 14.5795C122.175 13.2765 121.342 12.2917 120.281 11.625C119.228 10.9508 118.035 10.6136 116.702 10.6136C115.361 10.6136 114.164 10.9508 113.111 11.625C112.058 12.2917 111.224 13.2765 110.611 14.5795C110.005 15.875 109.702 17.4697 109.702 19.3636C109.702 21.2576 110.005 22.8561 110.611 24.1591C111.224 25.4545 112.058 26.4394 113.111 27.1136C114.164 27.7803 115.361 28.1136 116.702 28.1136C118.035 28.1136 119.228 27.7803 120.281 27.1136C121.342 26.4394 122.175 25.4545 122.781 24.1591C123.395 22.8561 123.702 21.2576 123.702 19.3636ZM151.773 19.3636C151.773 21.8485 151.318 23.9848 150.409 25.7727C149.5 27.553 148.254 28.9242 146.67 29.8864C145.095 30.8409 143.303 31.3182 141.295 31.3182C139.28 31.3182 137.481 30.8409 135.898 29.8864C134.322 28.9242 133.08 27.5492 132.17 25.7614C131.261 23.9735 130.807 21.8409 130.807 19.3636C130.807 16.8788 131.261 14.7462 132.17 12.9659C133.08 11.178 134.322 9.80682 135.898 8.85227C137.481 7.89015 139.28 7.40909 141.295 7.40909C143.303 7.40909 145.095 7.89015 146.67 8.85227C148.254 9.80682 149.5 11.178 150.409 12.9659C151.318 14.7462 151.773 16.8788 151.773 19.3636ZM148.295 19.3636C148.295 17.4697 147.989 15.875 147.375 14.5795C146.769 13.2765 145.936 12.2917 144.875 11.625C143.822 10.9508 142.629 10.6136 141.295 10.6136C139.955 10.6136 138.758 10.9508 137.705 11.625C136.652 12.2917 135.818 13.2765 135.205 14.5795C134.598 15.875 134.295 17.4697 134.295 19.3636C134.295 21.2576 134.598 22.8561 135.205 24.1591C135.818 25.4545 136.652 26.4394 137.705 27.1136C138.758 27.7803 139.955 28.1136 141.295 28.1136C142.629 28.1136 143.822 27.7803 144.875 27.1136C145.936 26.4394 146.769 25.4545 147.375 24.1591C147.989 22.8561 148.295 21.2576 148.295 19.3636Z" fill="black"/>
<path d="M56.116 42.192H62.772V51.616H56.116V42.192ZM61.476 43.264H57.412V50.544H61.476V43.264ZM65.796 40.768H67.124V55.264H65.796V40.768ZM73.8428 42.848H74.9148V45.2C74.9148 48.256 73.0748 51.328 70.7708 52.464L70.0028 51.408C72.0988 50.416 73.8428 47.696 73.8428 45.2V42.848ZM74.0988 42.848H75.1708V45.2C75.1708 47.648 76.9148 50.144 79.0428 51.056L78.2908 52.112C75.9548 51.024 74.0988 48.208 74.0988 45.2V42.848ZM70.4828 42.256H78.5628V43.376H70.4828V42.256ZM80.5148 40.784H81.8428V55.248H80.5148V40.784ZM84.7215 49.072H97.8415V50.16H84.7215V49.072ZM90.5775 49.744H91.8895V55.248H90.5775V49.744ZM91.2495 41.36C94.2735 41.36 96.3055 42.592 96.3055 44.528C96.3055 46.464 94.2735 47.696 91.2495 47.696C88.2415 47.696 86.1935 46.464 86.1935 44.528C86.1935 42.592 88.2415 41.36 91.2495 41.36ZM91.2495 42.432C89.0415 42.432 87.5375 43.248 87.5375 44.528C87.5375 45.808 89.0415 46.624 91.2495 46.624C93.4575 46.624 94.9455 45.808 94.9455 44.528C94.9455 43.248 93.4575 42.432 91.2495 42.432Z" fill="black"/>
</svg>
